<svg width="221" height="219" viewBox="0 0 221 219" fill="none" xmlns="http://www.w3.org/2000/svg">
<line x1="52" y1="38" x2="52" y2="162" stroke="#5A57E7" stroke-width="2"/>
<circle opacity="0.2" cx="67.5" cy="34.5" r="5.5" fill="#5A57E7"/>
<path d="M66.0903 37V36.3615L67.5821 34.9803C67.7089 34.8575 67.8153 34.747 67.9013 34.6488C67.9886 34.5505 68.0548 34.4544 68.0998 34.3602C68.1448 34.2647 68.1673 34.1617 68.1673 34.0512C68.1673 33.9284 68.1393 33.8227 68.0834 33.734C68.0275 33.644 67.9511 33.5751 67.8542 33.5274C67.7574 33.4782 67.6475 33.4537 67.5248 33.4537C67.3965 33.4537 67.2847 33.4796 67.1892 33.5314C67.0937 33.5833 67.02 33.6576 66.9682 33.7545C66.9163 33.8514 66.8904 33.9666 66.8904 34.1003H66.0493C66.0493 33.8261 66.1114 33.5881 66.2356 33.3862C66.3597 33.1843 66.5336 33.028 66.7574 32.9175C66.9811 32.807 67.239 32.7518 67.5309 32.7518C67.831 32.7518 68.0923 32.805 68.3146 32.9114C68.5384 33.0165 68.7123 33.1624 68.8365 33.3493C68.9606 33.5362 69.0227 33.7504 69.0227 33.9919C69.0227 34.1501 68.9913 34.3063 68.9285 34.4605C68.8672 34.6146 68.7573 34.7859 68.5991 34.9741C68.4408 35.161 68.2178 35.3854 67.9299 35.6474L67.3181 36.2469V36.2756H69.0779V37H66.0903Z" fill="#5A57E7"/>
<circle opacity="0.2" cx="174.5" cy="172.5" r="5.5" fill="#5A57E7"/>
<path d="M173.09 175V174.362L174.582 172.98C174.709 172.857 174.815 172.747 174.901 172.649C174.989 172.551 175.055 172.454 175.1 172.36C175.145 172.265 175.167 172.162 175.167 172.051C175.167 171.928 175.139 171.823 175.083 171.734C175.027 171.644 174.951 171.575 174.854 171.527C174.757 171.478 174.648 171.454 174.525 171.454C174.397 171.454 174.285 171.48 174.189 171.531C174.094 171.583 174.02 171.658 173.968 171.755C173.916 171.851 173.89 171.967 173.89 172.1H173.049C173.049 171.826 173.111 171.588 173.236 171.386C173.36 171.184 173.534 171.028 173.757 170.918C173.981 170.807 174.239 170.752 174.531 170.752C174.831 170.752 175.092 170.805 175.315 170.911C175.538 171.016 175.712 171.162 175.836 171.349C175.961 171.536 176.023 171.75 176.023 171.992C176.023 172.15 175.991 172.306 175.929 172.46C175.867 172.615 175.757 172.786 175.599 172.974C175.441 173.161 175.218 173.385 174.93 173.647L174.318 174.247V174.276H176.078V175H173.09Z" fill="#5A57E7"/>
<circle opacity="0.2" cx="184.5" cy="101.5" r="5.5" fill="#5A57E7"/>
<path d="M185.319 99.8091V104H184.433V100.65H184.408L183.448 101.252V100.466L184.486 99.8091H185.319Z" fill="#5A57E7"/>
<circle opacity="0.2" cx="67.5" cy="85.5" r="5.5" fill="#5A57E7"/>
<path d="M65.889 87.2633V86.5655L67.6386 83.8091H68.2402V84.775H67.8841L66.7812 86.5205V86.5532H69.2675V87.2633H65.889ZM67.9005 88V87.0505L67.9169 86.7415V83.8091H68.7477V88H67.9005Z" fill="#5A57E7"/>
<line x1="46" y1="70" x2="51" y2="70" stroke="#E4E4E4" stroke-width="2"/>
<circle opacity="0.2" cx="33.5" cy="53.5" r="5.5" fill="#5A57E7"/>
<path d="M33.5549 56.0573C33.2494 56.0573 32.9772 56.0048 32.7385 55.8997C32.5011 55.7933 32.3135 55.6473 32.1757 55.4618C32.0393 55.2749 31.969 55.0594 31.9649 54.8152H32.8571C32.8626 54.9175 32.896 55.0075 32.9574 55.0853C33.0202 55.1617 33.1034 55.221 33.2071 55.2633C33.3107 55.3056 33.4274 55.3268 33.557 55.3268C33.692 55.3268 33.8114 55.3029 33.9151 55.2551C34.0188 55.2074 34.1 55.1412 34.1586 55.0566C34.2173 54.9721 34.2466 54.8745 34.2466 54.764C34.2466 54.6521 34.2152 54.5532 34.1525 54.4673C34.0911 54.38 34.0024 54.3118 33.8864 54.2627C33.7719 54.2135 33.6354 54.189 33.4772 54.189H33.0863V53.5383H33.4772C33.6109 53.5383 33.7289 53.5151 33.8312 53.4687C33.9349 53.4223 34.0154 53.3582 34.0727 53.2763C34.13 53.1931 34.1586 53.0962 34.1586 52.9857C34.1586 52.8807 34.1334 52.7886 34.0829 52.7095C34.0338 52.629 33.9642 52.5662 33.8742 52.5212C33.7855 52.4762 33.6818 52.4537 33.5631 52.4537C33.4431 52.4537 33.3333 52.4755 33.2337 52.5192C33.1341 52.5615 33.0543 52.6222 32.9942 52.7013C32.9342 52.7804 32.9022 52.8732 32.8981 52.9796H32.0488C32.0529 52.7381 32.1218 52.5253 32.2555 52.3411C32.3892 52.157 32.5693 52.013 32.7957 51.9094C33.0236 51.8043 33.2807 51.7518 33.5672 51.7518C33.8564 51.7518 34.1095 51.8043 34.3264 51.9094C34.5433 52.0144 34.7118 52.1563 34.8319 52.335C34.9533 52.5124 35.0133 52.7115 35.0119 52.9325C35.0133 53.1672 34.9403 53.3629 34.793 53.5198C34.647 53.6767 34.4567 53.7763 34.222 53.8186V53.8513C34.5304 53.8909 34.765 53.998 34.926 54.1726C35.0883 54.3459 35.1688 54.5628 35.1675 54.8234C35.1688 55.0621 35.0999 55.2742 34.9608 55.4598C34.823 55.6453 34.6327 55.7913 34.3898 55.8977C34.147 56.0041 33.8687 56.0573 33.5549 56.0573Z" fill="#5A57E7"/>
<circle opacity="0.2" cx="38.5" cy="165.5" r="5.5" fill="#5A57E7"/>
<path d="M37.0903 168V167.362L38.5821 165.98C38.7089 165.857 38.8153 165.747 38.9013 165.649C38.9886 165.551 39.0548 165.454 39.0998 165.36C39.1448 165.265 39.1673 165.162 39.1673 165.051C39.1673 164.928 39.1393 164.823 39.0834 164.734C39.0275 164.644 38.9511 164.575 38.8542 164.527C38.7574 164.478 38.6475 164.454 38.5248 164.454C38.3965 164.454 38.2847 164.48 38.1892 164.531C38.0937 164.583 38.02 164.658 37.9682 164.755C37.9163 164.851 37.8904 164.967 37.8904 165.1H37.0493C37.0493 164.826 37.1114 164.588 37.2356 164.386C37.3597 164.184 37.5336 164.028 37.7574 163.918C37.9811 163.807 38.239 163.752 38.5309 163.752C38.831 163.752 39.0923 163.805 39.3146 163.911C39.5384 164.016 39.7123 164.162 39.8365 164.349C39.9606 164.536 40.0227 164.75 40.0227 164.992C40.0227 165.15 39.9913 165.306 39.9285 165.46C39.8672 165.615 39.7573 165.786 39.5991 165.974C39.4408 166.161 39.2178 166.385 38.9299 166.647L38.3181 167.247V167.276H40.0779V168H37.0903Z" fill="#5A57E7"/>
<line x1="0.5" y1="2.18557e-08" x2="0.49999" y2="219" stroke="#E4E4E4"/>
<path d="M52 38L52 162L221 162" stroke="#E4E4E4" stroke-width="2"/>
<line x1="46" y1="39" x2="51" y2="39" stroke="#5A57E7" stroke-width="2"/>
<line opacity="0.2" x1="51" y1="149" x2="25" y2="149" stroke="#5A57E7" stroke-width="4"/>
<line opacity="0.2" x1="51" y1="38" x2="51" y2="29" stroke="#5A57E7" stroke-width="4"/>
<line opacity="0.2" x1="157" y1="163" x2="157" y2="183" stroke="#5A57E7" stroke-width="4"/>
<line opacity="0.2" x1="165" y1="38" x2="165" y2="162" stroke="#5A57E7" stroke-width="4"/>
<line x1="46" y1="136" x2="51" y2="136" stroke="#E4E4E4" stroke-width="2"/>
<line x1="46" y1="101" x2="51" y2="101" stroke="#E4E4E4" stroke-width="2"/>
<line x1="145" y1="162" x2="145" y2="167" stroke="#E4E4E4" stroke-width="2"/>
<line x1="105" y1="162" x2="105" y2="167" stroke="#E4E4E4" stroke-width="2"/>
<line x1="78" y1="162" x2="78" y2="167" stroke="#E4E4E4" stroke-width="2"/>
<line x1="64" y1="162" x2="64" y2="167" stroke="#E4E4E4" stroke-width="2"/>
<rect x="25" y="130" width="16" height="10" rx="2" fill="#E4E4E4"/>
<rect x="25" y="96" width="16" height="10" rx="2" fill="#E4E4E4"/>
<rect x="25" y="65" width="16" height="10" rx="2" fill="#E4E4E4"/>
<rect x="71" y="173" width="16" height="10" rx="2" fill="#E4E4E4"/>
<rect x="70" y="102" width="16" height="60" rx="2" fill="#E4E4E4"/>
<rect x="57" y="78" width="16" height="84" rx="2" fill="#E4E4E4"/>
<rect x="96" y="111" width="16" height="51" rx="2" fill="#E4E4E4"/>
<rect x="137" y="40" width="16" height="122" rx="2" fill="#E4E4E4"/>
<rect x="57" y="173" width="16" height="10" rx="2" fill="#E4E4E4"/>
<rect x="97" y="173" width="16" height="10" rx="2" fill="#E4E4E4"/>
<rect x="137" y="173" width="16" height="10" rx="2" fill="#E4E4E4"/>
<rect x="26" y="35" width="14" height="8" rx="1" fill="#5A57E7" stroke="#5A57E7" stroke-width="2"/>
<path d="M172.632 39L172.632 67L172.632 95M172.632 95L175 92.5M172.632 95L170 92.5" stroke="#5A57E7" stroke-linecap="round"/>
<path d="M172.368 162L172.368 134L172.368 106M172.368 106L170 108.5M172.368 106L175 108.5" stroke="#5A57E7" stroke-linecap="round"/>
<path d="M34.5 155.368L32 153M34.5 155.368L32 158M34.5 155.368L25 155.368" stroke="#5A57E7" stroke-linecap="round"/>
<path d="M42 155.632L44.5 158M42 155.632L44.5 153M42 155.632L50.5 155.632" stroke="#5A57E7" stroke-linecap="round"/>
<path d="M164.632 170.511L167.01 168.02M164.632 170.511L162.01 168M164.632 170.511L164.67 164.011" stroke="#5A57E7" stroke-linecap="round"/>
<path d="M164.403 177.01L162.024 179.5M164.403 177.01L167.024 179.52M164.403 177.01L164.368 182.51" stroke="#5A57E7" stroke-linecap="round"/>
</svg>
