<!-- icon666.com - MILLIONS vector ICONS FREE --><svg id="Capa_1" enable-background="new 0 0 512 512" viewBox="0 0 512 512" xmlns="http://www.w3.org/2000/svg"><g><path d="m184 337h-25.845l15.771-39.429c3.077-7.692-.664-16.421-8.355-19.498-7.694-3.077-16.422.665-19.498 8.356l-24 60c-3.935 9.838 3.318 20.571 13.927 20.571h25.845l-15.771 39.429c-3.077 7.692.664 16.421 8.355 19.498 7.74 3.095 16.441-.714 19.498-8.356l24-60c3.935-9.838-3.318-20.571-13.927-20.571z" fill="#000000" style="fill: rgb(160, 160, 160);"></path><path d="m95 159h130c16.542 0 30-13.458 30-30v-34c0-16.542-13.458-30-30-30h-130c-16.542 0-30 13.458-30 30v34c0 16.542 13.458 30 30 30zm130-30h-64.095l17-34h47.095zm-130-34h49.365l-17 34h-32.365z" fill="#000000" style="fill: rgb(160, 160, 160);"></path><path d="m496 41h-9v-26c0-8.284-6.716-15-15-15s-15 6.716-15 15v26h-34v-26c0-8.284-6.716-15-15-15s-15 6.716-15 15v26h-9c-8.284 0-15 6.716-15 15 0 39.603 17.189 83.731 56 93.223v206.777c0 24.813-20.187 45-45 45h-93v-163c0-5.685-1.07-11.121-3.002-16.133 20.015-4.561 35.002-22.491 35.002-43.867v-133c0-24.813-20.187-45-45-45h-228c-24.813 0-45 20.187-45 45v133c0 21.376 14.987 39.306 35.002 43.867-1.932 5.012-3.002 10.448-3.002 16.133v229c0 24.813 20.187 45 45 45h164c24.813 0 45-20.187 45-45v-36h93c41.355 0 75-33.645 75-75v-206.777c38.809-9.491 56-53.628 56-93.223 0-8.284-6.716-15-15-15zm-465 137v-133c0-8.271 6.729-15 15-15h228c8.271 0 15 6.729 15 15v133c0 8.271-6.729 15-15 15-10.597 0-216.566 0-228 0-8.271 0-15-6.729-15-15zm226 289c0 8.271-6.729 15-15 15h-164c-8.271 0-15-6.729-15-15v-229c0-8.271 6.729-15 15-15h164c8.271 0 15 6.729 15 15zm183-346c-24.684 0-36.464-26.171-39.897-50h79.795c-3.434 23.829-15.214 50-39.898 50z" fill="#000000" style="fill: rgb(160, 160, 160);"></path></g></svg>