<svg width="11" height="14" viewBox="0 0 11 14" fill="none" xmlns="http://www.w3.org/2000/svg">
<g id="Component 26">
<path id="Union" fill-rule="evenodd" clip-rule="evenodd" d="M5.5 1.73684C3.4244 1.73684 1.73684 3.42586 1.73684 5.51549C1.73684 6.06717 1.9605 6.74739 2.35411 7.4205C2.74412 8.08743 3.25041 8.66031 3.70688 9.00433L3.92141 9.16601L4.63681 11.2895H6.36319L7.07859 9.16601L7.29312 9.00433C7.74959 8.66031 8.25588 8.08743 8.64589 7.4205C9.0395 6.74739 9.26316 6.06717 9.26316 5.51549C9.26316 3.42586 7.5756 1.73684 5.5 1.73684ZM2.44271 10.2169L3.18421 12.4179V12.4474H3.19415L3.48672 13.3158H7.51328L7.80585 12.4474H7.81579V12.4179L8.55729 10.2169C9.14769 9.72063 9.71185 9.03831 10.1452 8.29725C10.6282 7.47121 11 6.48417 11 5.51549C11 2.4721 8.5403 0 5.5 0C2.4597 0 0 2.4721 0 5.51549C0 6.48417 0.37176 7.47121 0.854801 8.29725C1.28815 9.03831 1.85231 9.72063 2.44271 10.2169ZM7.64185 7.22234C8.28175 6.73283 8.55517 6.04919 8.54481 5.36871C8.53492 4.71943 8.27178 4.10287 7.90423 3.62289C7.53674 3.14297 7.01021 2.72823 6.38612 2.55002C5.73168 2.36314 5.00072 2.45051 4.36316 2.94288L5.42476 4.31752C5.59218 4.18823 5.74354 4.1728 5.90922 4.22011C6.10525 4.27608 6.33662 4.4325 6.52525 4.67884C6.71383 4.9251 6.80504 5.18989 6.80817 5.39515C6.81082 5.56921 6.75591 5.7133 6.58657 5.84284L7.64185 7.22234Z" fill="#C4C4C4"/>
</g>
</svg>
