<!-- icon666.com - MILLIONS vector ICONS FREE --><svg id="Capa_1" enable-background="new 0 0 512 512" viewBox="0 0 512 512" xmlns="http://www.w3.org/2000/svg"><g><g><path d="m404.645 429.419c-13.659 0-24.774 11.115-24.774 24.774s11.115 24.774 24.774 24.774 24.774-11.115 24.774-24.774c0-13.658-11.115-24.774-24.774-24.774zm0 33.033c-4.558 0-8.258-3.708-8.258-8.258s3.7-8.258 8.258-8.258 8.258 3.708 8.258 8.258-3.699 8.258-8.258 8.258z" fill="#000000" style="fill: rgb(160, 160, 160);"></path><path d="m107.355 429.419c-13.659 0-24.774 11.115-24.774 24.774s11.115 24.774 24.774 24.774 24.774-11.115 24.774-24.774c0-13.658-11.115-24.774-24.774-24.774zm0 33.033c-4.558 0-8.258-3.708-8.258-8.258s3.7-8.258 8.258-8.258 8.258 3.708 8.258 8.258-3.7 8.258-8.258 8.258z" fill="#000000" style="fill: rgb(160, 160, 160);"></path><path d="m322.065 396.387h33.032v16.516h-33.032z" fill="#000000" style="fill: rgb(160, 160, 160);"></path><path d="m143.393 87.833 11.677-11.677c-35.419-35.419-93.052-35.419-128.471 0l11.677 11.677c28.994-28.978 76.131-28.978 105.117 0z" fill="#000000" style="fill: rgb(160, 160, 160);"></path><path d="m120.031 111.187 11.677-11.677c-10.917-10.917-25.427-16.929-40.869-16.929s-29.952 6.012-40.869 16.929l11.677 11.677c7.796-7.796 18.168-12.09 29.192-12.09s21.396 4.294 29.192 12.09z" fill="#000000" style="fill: rgb(160, 160, 160);"></path><path d="m115.613 140.387c0-13.659-11.115-24.774-24.774-24.774s-24.774 11.115-24.774 24.774 11.115 24.774 24.774 24.774 24.774-11.115 24.774-24.774zm-33.032 0c0-4.55 3.7-8.258 8.258-8.258s8.258 3.708 8.258 8.258-3.7 8.258-8.258 8.258-8.258-3.708-8.258-8.258z" fill="#000000" style="fill: rgb(160, 160, 160);"></path><path d="m462.452 334.658v-301.626h-301.593c-16.681-20.158-41.877-33.032-70.02-33.032-50.085 0-90.839 40.754-90.839 90.839v1.899c0 16.467 4.476 32.628 12.94 46.741l58.31 97.181c2.618 4.369 6.697 7.507 11.33 9.332v84.331h-8.25s0 0-.008 0c-19.844 0-38.516 7.73-52.546 21.768-14.038 14.03-21.776 32.694-21.776 52.554v33.032c0 22.767 18.523 41.29 41.29 41.29h13.915c9.299 19.498 29.151 33.033 52.15 33.033s42.843-13.535 52.15-33.032h192.991c9.299 19.497 29.151 33.032 52.15 33.032s42.843-13.535 52.15-33.032h13.915c22.767 0 41.29-18.523 41.29-41.29v-33.032c-.001-32.282-20.729-59.748-49.549-69.988zm-5.657 94.761c-9.299-19.497-29.151-33.032-52.15-33.032-5.739 0-11.281.867-16.516 2.436v-30.084l-57.311-72.473c-7.886-9.844-19.629-15.492-32.248-15.492h-85.14c-12.61 0-24.37 5.649-32.157 15.393l-28.251 34.155h-20.232l35.493-44.371c11.033-13.783 27.491-21.694 45.147-21.694h85.149c17.656 0 34.114 7.911 45.139 21.694l48.706 60.887h45.254c15.707 0 29.952 6.317 40.374 16.516h-23.849c-6.441 0-12.313 3.27-15.707 8.762-3.386 5.492-3.691 12.205-.809 17.978 7.044 14.08 21.19 22.825 36.938 22.825l20.86-.017v16.516h-38.69zm-262.73 0-1.866-2.494c-10.727-14.311-18.729-30.142-24.171-47.054h79.715v16.516h-33.033v16.516h33.032v16.516zm-12.809-346.838h16.937v115.613h-64.693l35.229-58.715c8.473-14.113 12.949-30.274 12.949-46.741v-1.899c-.001-2.792-.174-5.533-.422-8.258zm83.002 0h49.548v115.613h-49.548zm66.065 132.129v-132.129h33.032v132.129h49.548v33.032h-114.333-85.14-81.301v-33.032h82.581v-132.129h33.032v132.129zm70.028 115.613-43.743-54.685c-3.402-4.253-7.218-8.035-11.347-11.38h67.642v66.065zm12.552-132.129h-33.032v-115.613h33.032zm-280.774 66.064h34.601c-4.129 3.345-7.944 7.127-11.347 11.38l-23.255 29.077v-40.457zm-8.258 82.581h41.29c4.558 0 8.258 3.708 8.258 8.258s-3.7 8.258-8.258 8.258h-8.258-24.774c-4.558 0-8.258-3.708-8.258-8.258zm174.699-49.549c7.573 0 14.625 3.386 19.324 9.257l44.916 56.807h-98.552v-66.064zm-50.828 66.065h-59.326c.925-2.593 1.519-5.351 1.519-8.258 0-10.818-7.011-19.943-16.698-23.313l20.852-25.204c4.715-5.905 11.768-9.29 19.34-9.29h34.312v66.065zm16.516 16.516h107.355v26.954c-8.184 5.723-14.782 13.51-19.117 22.594h-88.237v-49.548zm210.366 16.524c-9.447 0-17.937-5.244-22.165-13.692-.405-.809-.173-1.478.091-1.908.256-.421.76-.925 1.652-.925h35.625c2.453 5.137 4.162 10.686 4.996 16.516zm-28.689-346.847v281.262c-2.717-.306-5.467-.487-8.258-.487h-8.258v-264.258h-251.26c-1.635-5.764-3.823-11.281-6.507-16.516h274.283zm-418.832 81.425c-6.929-11.545-10.587-24.766-10.587-38.235v-1.899c0-40.977 33.338-74.323 74.323-74.323s74.323 33.346 74.323 74.323v1.899c0 13.469-3.658 26.69-10.587 38.235l-58.31 97.181c-2.271 3.79-8.58 3.79-10.851 0zm71.994 115.01c4.633-1.825 8.712-4.963 11.33-9.332l5.186-8.638v97.354l-3.964 4.955h-12.552zm-24.766 100.856h33.024v8.258c0 13.659 11.115 24.774 24.774 24.774h18.663c5.12 17.705 12.891 34.296 23.18 49.548h-14.468c-9.299-19.497-29.151-33.032-52.15-33.032s-42.843 13.535-52.15 33.032h-38.688v-16.516l20.868-.008c15.723 0 29.861-8.737 36.914-22.792 2.89-5.772 2.585-12.494-.801-17.978-3.394-5.492-9.266-8.77-15.715-8.77h-23.883c10.868-10.645 25.187-16.516 40.432-16.516zm-16.549 33.032c.9 0 1.404.504 1.66.925.264.421.495 1.098.083 1.908-4.22 8.431-12.701 13.675-22.14 13.675h-20.216c.826-5.764 2.494-11.314 4.971-16.508zm-16.492 82.581c-10.752 0-19.836-6.929-23.255-16.516h32.173c-.388 2.709-.661 5.45-.661 8.258s.273 5.549.661 8.258zm66.065 33.032c-22.767 0-41.29-18.523-41.29-41.29s18.523-41.29 41.29-41.29 41.29 18.523 41.29 41.29-18.523 41.29-41.29 41.29zm57.146-33.032c.388-2.709.661-5.45.661-8.258s-.273-5.549-.661-8.258h182.999c-.388 2.709-.661 5.45-.661 8.258s.273 5.549.661 8.258zm240.144 33.032c-22.767 0-41.29-18.523-41.29-41.29s18.523-41.29 41.29-41.29 41.29 18.523 41.29 41.29-18.522 41.29-41.29 41.29zm66.065-33.032h-8.919c.388-2.709.661-5.45.661-8.258s-.273-5.549-.661-8.258h32.173c-3.418 9.587-12.502 16.516-23.254 16.516z" fill="#000000" style="fill: rgb(160, 160, 160);"></path></g></g></svg>