<!-- icon666.com - MILLIONS vector ICONS FREE --><svg id="Layer_1" enable-background="new 0 0 512 512" viewBox="0 0 512 512" xmlns="http://www.w3.org/2000/svg"><g clip-rule="evenodd" fill-rule="evenodd"><g fill="#d1e7ff"><path d="m327 273.52c0 21.62-17.59 39.19-39.2 39.19s-39.19-17.58-39.19-39.19 17.58-39.19 39.19-39.19c21.62 0 39.2 17.57 39.2 39.19z" fill="#d1e7ff" style="fill: rgb(241, 242, 246);"></path><path d="m320.61 312.67c-12.19 15.19-19.64 33.52-21.45 52.91l-.34 3.63h-246.6c-6.13 0-11.24-5.11-11.24-11.24v-282.26c0-6.13 5.11-11.24 11.24-11.24h309.67c6.13 0 11.24 5.11 11.24 11.24v202.78l-2.87.84c-15.2 4.47-29.11 12.54-40.58 23.46l-2.6 2.48-5.48-4.64 2.01-2.97c4.84-7.15 7.39-15.5 7.39-24.13 0-23.82-19.38-43.19-43.2-43.19s-43.19 19.38-43.19 43.19 19.38 43.19 43.19 43.19c9.93 0 19.46-3.4 27.17-9.65l2.79-2.26 5.1 5.07z" fill="#d1e7ff" style="fill: rgb(241, 242, 246);"></path><path d="m377.13 75.71c0-8.4-6.83-15.24-15.24-15.24h-309.67c-8.4 0-15.24 6.84-15.24 15.24v282.26c0 8.4 6.83 15.24 15.24 15.24h246.45l.08 3.91c.08 3.58.35 7.16.82 10.72l.59 4.52h-247.94c-18.97 0-34.39-15.42-34.39-34.39v-282.26c0-18.97 15.42-34.39 34.39-34.39h309.67c18.97 0 34.39 15.42 34.39 34.39v199.55l-3.77.22c-3.59.21-7.17.61-10.72 1.2l-4.66.78z" fill="#d1e7ff" style="fill: rgb(241, 242, 246);"></path><path d="m398.28 279.31c52.7 0 95.53 42.86 95.53 95.55 0 52.7-42.83 95.55-95.53 95.55-52.69 0-95.55-42.86-95.55-95.55 0-52.68 42.86-95.55 95.55-95.55z" fill="#d1e7ff" style="fill: rgb(241, 242, 246);"></path></g><path d="m398.33 423.03c-2.14 0-3.87-1.74-3.87-3.87s1.73-3.87 3.87-3.87c2.13 0 3.87 1.74 3.87 3.87 0 2.14-1.74 3.87-3.87 3.87zm0-19.74c-8.75 0-15.87 7.12-15.87 15.87s7.12 15.88 15.87 15.88 15.87-7.12 15.87-15.88c0-8.75-7.12-15.87-15.87-15.87zm26.69-12.33c2.34 2.35 2.33 6.15-.02 8.49-1.17 1.17-2.7 1.75-4.23 1.75-1.54 0-3.08-.59-4.25-1.77-4.88-4.9-11.38-7.6-18.29-7.6-6.87 0-13.33 2.67-18.2 7.52-2.35 2.34-6.15 2.33-8.49-.02s-2.33-6.15.02-8.48c7.13-7.11 16.61-11.02 26.67-11.02 10.13 0 19.64 3.95 26.79 11.13zm20.41-20.42c-12.6-12.63-29.35-19.59-47.2-19.59-17.78 0-34.5 6.92-47.09 19.48-2.35 2.34-2.35 6.14-.01 8.48s6.14 2.35 8.48.01c10.33-10.3 24.04-15.97 38.62-15.97 14.63 0 28.37 5.71 38.73 16.06 1.15 1.18 2.7 1.76 4.21 1.76 1.55 0 3.07-.58 4.25-1.75 2.34-2.33 2.34-6.13.01-8.48zm20.41-11.93c-1.19 1.17-2.7 1.75-4.25 1.75-1.51 0-3.07-.58-4.25-1.76-15.75-15.81-36.76-24.52-59.1-24.52-22.29 0-43.25 8.68-59.03 24.43-2.34 2.34-6.14 2.34-8.49 0-2.34-2.34-2.33-6.14.01-8.48 18.04-18.02 42.02-27.94 67.51-27.94 25.55 0 49.57 9.96 67.61 28.04 2.32 2.34 2.32 6.14-.01 8.48zm-67.56 107.8c50.5 0 91.53-41.07 91.53-91.55s-41.03-91.55-91.53-91.55c-50.48 0-91.55 41.07-91.55 91.55s41.07 91.55 91.55 91.55zm-75.28-192.89c0 19.41-15.79 35.19-35.2 35.19-19.4 0-35.19-15.79-35.19-35.19s15.79-35.19 35.19-35.19c19.41 0 35.2 15.78 35.2 35.19zm-35.2-47.2c-26.02 0-47.19 21.17-47.19 47.19s21.17 47.19 47.19 47.19c11.24 0 21.57-3.96 29.69-10.54-12.34 15.38-20.38 34.33-22.31 55.04h-242.96c-3.92 0-7.24-3.31-7.24-7.24v-282.25c0-3.93 3.32-7.24 7.24-7.24h309.67c3.92 0 7.24 3.31 7.24 7.24v199.78c-16.01 4.71-30.43 13.18-42.21 24.4 5.1-7.54 8.08-16.61 8.08-26.38 0-26.02-21.17-47.19-47.2-47.19zm-235.58 162.04h243.39c-.48-3.66-.77-7.38-.85-11.15h-242.54c-10.61 0-19.24-8.63-19.24-19.24v-282.26c0-10.61 8.63-19.24 19.24-19.24h309.67c10.61 0 19.24 8.63 19.24 19.24v197.03c3.66-.61 7.38-1.03 11.15-1.25v-195.78c0-16.76-13.63-30.39-30.39-30.39h-309.67c-16.76 0-30.39 13.63-30.39 30.39v282.26c0 16.76 13.63 30.39 30.39 30.39zm352.06-116.87v-195.78c0-23.37-19.02-42.39-42.39-42.39h-309.67c-23.37 0-42.39 19.02-42.39 42.39v282.26c0 23.37 19.02 42.39 42.39 42.39h245.69c11.39 44.8 52.07 78.05 100.37 78.05 57.09 0 103.56-46.45 103.56-103.55 0-55.08-43.24-100.25-97.56-103.37zm-116.48 10.09 7.54-13.05h-15.07zm17.93-25.06c2.14 0 4.13 1.15 5.2 3 1.07 1.86 1.07 4.14 0 6l-17.93 31.06c-1.07 1.85-3.05 3-5.2 3-2.14 0-4.12-1.15-5.19-3l-17.93-31.05c-1.07-1.86-1.07-4.14 0-6 1.07-1.85 3.06-3 5.2-3h35.85zm-25.46-91.36h15.07l-7.54-13.05zm12.73-28.05c-1.07-1.86-3.05-3-5.2-3-2.14 0-4.12 1.14-5.19 3l-17.93 31.05c-1.07 1.85-1.07 4.14 0 6s3.06 3 5.2 3h35.85c2.14 0 4.13-1.15 5.2-3s1.07-4.14 0-6zm-5.2 58.25c19.41 0 35.2-15.79 35.2-35.19 0-19.41-15.79-35.19-35.2-35.19-19.4 0-35.19 15.79-35.19 35.19s15.79 35.19 35.19 35.19zm0-82.39c-26.02 0-47.19 21.17-47.19 47.19s21.17 47.19 47.19 47.19c26.03 0 47.2-21.17 47.2-47.19s-21.17-47.19-47.2-47.19zm-137.89 167.29v-23.06c0-3.06-2.49-5.55-5.56-5.55-3.06 0-5.55 2.49-5.55 5.55v23.06c0 3.06 2.49 5.55 5.55 5.55 3.07.01 5.56-2.48 5.56-5.55zm-5.56-40.61c-9.67 0-17.55 7.87-17.55 17.55v23.06c0 9.68 7.88 17.55 17.55 17.55 9.68 0 17.56-7.87 17.56-17.55v-23.06c0-9.67-7.88-17.55-17.56-17.55zm0-85.98c-6.21 0-11.27 5.06-11.27 11.27s5.06 11.27 11.27 11.27c6.22 0 11.28-5.06 11.28-11.27s-5.06-11.27-11.28-11.27zm0 34.54c12.84 0 23.28-10.44 23.28-23.27s-10.44-23.27-23.28-23.27c-12.83 0-23.27 10.44-23.27 23.27 0 12.84 10.44 23.27 23.27 23.27zm-40.25 126.42h80.51v-91.79h-80.51zm80.51-195.58h-80.51v91.79h80.51zm6-12h-92.51c-3.31 0-6 2.68-6 6v207.58c0 3.31 2.69 6 6 6h92.51c3.31 0 6-2.69 6-6v-207.58c0-3.31-2.69-6-6-6zm17.14 214.99v-210.4c0-8.68-7.06-15.74-15.74-15.74h-95.31c-8.68 0-15.75 7.06-15.75 15.74v210.4c0 8.68 7.07 15.74 15.75 15.74h95.31c8.68 0 15.74-7.06 15.74-15.74zm-15.74-238.14h-95.31c-15.3 0-27.75 12.44-27.75 27.74v210.4c0 15.29 12.45 27.74 27.75 27.74h95.31c15.3 0 27.74-12.45 27.74-27.74v-210.4c0-15.29-12.44-27.74-27.74-27.74z" fill="#2296f3" style="fill: rgb(150, 150, 150);"></path></g></svg>