<svg width="98" height="25" viewBox="0 0 98 25" fill="none" xmlns="http://www.w3.org/2000/svg">
<g id="Primary Logo" clip-path="url(#clip0_17_6830)">
<path id="Vector 1" d="M42.0868 9.62446C42.0868 9.75162 40.338 11.7417 40.1674 12.1995L40.0608 12.7718L44.4327 18.208L47.3118 14.2977C47.3118 14.2977 44.5393 10.7689 43.5797 9.52909C43.3945 9.28991 42.8332 8.95685 42.8332 8.95685L42.0868 9.62446Z" fill="url(#paint0_linear_17_6830)"/>
<path id="Vector 2" d="M46.8852 4.95116C46.8852 5.07832 45.9895 5.06561 45.8188 5.5234L46.1387 6.38175L49.6576 11.2458C49.6576 11.2458 50.826 9.0127 52.9632 8.86145C53.3265 8.83573 54.5627 9.24294 54.5627 9.05219C54.5627 7.83957 52.3234 6.00026 50.8306 5.1419C50.557 4.9846 48.5913 4.66504 48.5913 4.66504L46.8852 4.95116Z" fill="url(#paint1_linear_17_6830)"/>
<path id="Vector" d="M46.6692 20.4547C48.0763 21.7798 49.6112 22.8274 51.5691 23.5987C50.4298 24.2327 49.3625 24.2109 48.327 24.2066C45.4998 24.1947 43.2547 22.9895 41.4015 21.0279C40.1449 19.6978 39.0644 18.2356 37.904 16.8333C37.7002 16.587 37.5635 16.2681 37.1159 16.1501C36.3517 16.8634 35.7329 17.7319 35.0804 18.5729C33.9812 19.9897 32.8077 21.3446 31.3527 22.4474C29.0735 24.175 26.4726 24.5282 23.6844 24.01C23.4268 23.9621 23.129 23.9379 22.9644 23.5211C24.2444 22.9874 25.4246 22.2819 26.5247 21.4402C28.9079 19.6166 30.6153 17.2427 32.4531 14.9752C35.1202 11.6845 37.7372 8.35689 40.42 5.0779C41.8726 3.3025 43.5517 1.75951 45.9364 1.15744C49.6303 0.224819 52.7867 1.10833 55.4354 3.72128C56.8502 5.11703 58.008 6.7066 59.265 8.22166C59.4527 8.4479 59.5863 8.7251 59.9426 8.84978C60.5667 8.47114 60.9158 7.83973 61.3507 7.28865C62.4965 5.83661 63.6646 4.40566 65.0531 3.14994C67.441 0.990418 70.2766 0.450157 73.4263 1.03472C73.6047 1.06784 73.7752 1.14192 73.9474 1.20225C74.0306 1.23141 74.109 1.27291 74.4128 1.40824C72.9978 1.98501 71.9015 2.60133 70.8889 3.35333C68.8524 4.86574 67.2617 6.75987 65.7322 8.70919C64.8873 9.78602 63.9111 10.7673 63.1727 11.9225C62.9769 12.2288 62.716 12.4958 63.0083 12.8666C63.8522 13.9373 64.6961 15.0081 65.6193 16.1795C66.7398 14.7832 67.7674 13.4805 68.8196 12.196C71.0876 9.42715 73.1899 6.53599 75.6315 3.89509C77.8884 1.45392 80.7287 0.532848 84.074 0.892427C84.5771 0.946506 85.1047 0.979795 85.5326 1.3507C85.4541 1.45239 85.4176 1.55288 85.3481 1.5821C81.8968 3.03233 79.5418 5.64181 77.337 8.41628C74.6479 11.8002 71.9422 15.1723 69.253 18.5562C68.575 19.4093 68.6505 19.6058 69.698 19.9489C71.8912 20.6673 74.053 19.8885 75.654 17.8767C79.0886 13.561 82.5244 9.24567 86.0097 4.96705C87.9418 2.59508 90.3159 0.860492 93.6609 0.804201C94.7559 0.785776 95.8614 0.756979 96.9455 1.29391C96.8105 1.43298 96.7493 1.54635 96.6538 1.58712C93.4595 2.95147 91.1763 5.30174 89.1088 7.88703C85.9988 11.776 82.9054 15.6771 79.7702 19.5476C78.4699 21.153 77.0278 22.6212 75.0211 23.4859C71.7194 24.9088 67.6027 24.2212 65.0084 21.7982C62.8228 19.757 61.1018 17.3593 59.2449 15.0664C56.9924 12.2852 54.7945 9.46369 52.5273 6.69355C50.8558 4.65141 47.9271 4.20007 45.9311 5.6421C46.3474 6.48755 47.0425 7.15524 47.6295 7.88981C50.5148 11.5006 53.3763 15.1295 56.3255 18.6926C57.9756 20.6861 59.9736 22.3325 62.4551 23.3734C62.559 23.417 62.6406 23.5088 62.7291 23.5756C62.6493 23.9512 62.3341 23.9509 62.0843 23.9943C59.0199 24.5262 56.2125 24.0905 53.8375 22.008C51.6474 20.0878 50.0439 17.7104 48.2248 15.5023C46.669 13.6137 45.1685 11.6838 43.6413 9.77366C43.4379 9.51922 43.2553 9.24147 42.826 9.06051C42.0615 9.64003 41.5624 10.487 40.9606 11.2355C39.9705 12.467 39.9414 12.5285 40.9269 13.7511C42.7576 16.0223 44.4256 18.4234 46.6692 20.4547Z" fill="url(#paint2_linear_17_6830)"/>
<path id="Vector_2" d="M12.4706 18.3776C11.255 19.9738 10.0121 21.4701 8.38057 22.6056C6.04559 24.2307 3.44 24.5688 0.663141 23.9339C0.575645 23.9139 0.492734 23.8684 0.413709 23.8249C0.362371 23.7966 0.321982 23.7503 0.292553 23.7255C0.261652 23.5658 0.342015 23.4772 0.455068 23.4282C3.81876 21.9706 6.15688 19.4355 8.3296 16.7063C11.5419 12.6713 14.7724 8.64906 18.0343 4.65029C20.3793 1.7755 23.4243 0.378082 27.3075 0.900954C27.9987 0.994023 28.0791 1.01591 28.7069 1.43945C27.6646 1.94706 26.6686 2.44463 25.7528 3.0778C23.478 4.65063 21.7845 6.72721 20.1101 8.82875C17.5837 11.9998 15.0452 15.1623 12.4706 18.3776Z" fill="url(#paint3_linear_17_6830)"/>
<path id="Vector_3" d="M19.7196 16.677C23.2861 12.3494 26.4937 7.83384 30.2857 3.75503C32.4886 1.38552 35.2961 0.476629 38.579 0.893767C39.0772 0.957061 39.6097 0.97624 40.1561 1.45123C38.8822 1.97228 37.787 2.58974 36.7707 3.33332C34.4471 5.03322 32.7596 7.26864 30.9962 9.44595C27.9023 13.266 24.9663 17.2027 21.7058 20.8993C19.4608 23.4446 16.5827 24.5234 13.107 24.1434C12.493 24.0763 12.1839 23.9914 11.4727 23.6231C14.9918 22.0792 17.4847 19.558 19.7196 16.677Z" fill="url(#paint4_linear_17_6830)"/>
</g>
<defs>
<linearGradient id="paint0_linear_17_6830" x1="43.6863" y1="8.95685" x2="43.6863" y2="18.208" gradientUnits="userSpaceOnUse">
<stop stop-color="#3742A0" stop-opacity="0.75"/>
<stop offset="1" stop-color="#D1A8E3" stop-opacity="0.26"/>
</linearGradient>
<linearGradient id="paint1_linear_17_6830" x1="50.1908" y1="4.66504" x2="50.1908" y2="11.2458" gradientUnits="userSpaceOnUse">
<stop stop-color="#3742A0" stop-opacity="0.75"/>
<stop offset="1" stop-color="#D1A8E3" stop-opacity="0.26"/>
</linearGradient>
<linearGradient id="paint2_linear_17_6830" x1="59.9549" y1="0.796509" x2="59.9549" y2="24.2293" gradientUnits="userSpaceOnUse">
<stop stop-color="#283CCF"/>
<stop offset="1" stop-color="#5E1478"/>
</linearGradient>
<linearGradient id="paint3_linear_17_6830" x1="14.4964" y1="0.79303" x2="14.4964" y2="24.2345" gradientUnits="userSpaceOnUse">
<stop stop-color="#2140D9"/>
<stop offset="1" stop-color="#5F1173"/>
</linearGradient>
<linearGradient id="paint4_linear_17_6830" x1="25.8144" y1="0.795868" x2="25.8144" y2="24.2176" gradientUnits="userSpaceOnUse">
<stop stop-color="#2140D9"/>
<stop offset="1" stop-color="#5F1173"/>
</linearGradient>
<clipPath id="clip0_17_6830">
<rect width="97.2447" height="24" fill="white" transform="translate(0 0.5)"/>
</clipPath>
</defs>
</svg>
